{"glyphs":{"0":{"ha":1211,"x_min":32,"x_max":1174,"o":"m 639 1042 l 1174 271 l 964 0 l 253 0 l 32 271 l 639 1042 z m 308 232 l 925 232 l 617 618 l 308 232 z "},"1":{"ha":489,"x_min":119,"x_max":351,"o":"m 351 1006 l 351 3 l 119 3 l 119 1006 l 351 1006 z "},"2":{"ha":956,"x_min":122,"x_max":817,"o":"m 817 232 l 817 0 l 315 0 l 122 271 l 522 763 q 522 764 522 763 l 522 764 l 122 764 l 178 1000 l 694 1000 l 817 782 l 356 233 l 356 232 q 817 232 356 232 l 817 232 z "},"3":{"ha":867,"x_min":118,"x_max":761,"o":"m 118 1006 l 761 1006 l 485 722 l 485 721 q 694 506 485 721 l 694 506 l 185 3 l 185 322 l 394 506 l 235 722 l 350 844 l 118 844 l 118 1006 z "},"4":{"ha":1078,"x_min":117,"x_max":967,"o":"m 967 1003 l 967 -3 l 735 229 l 735 482 l 194 482 l 194 926 l 117 1003 l 426 1003 l 426 765 l 735 765 l 735 1003 l 967 1003 z "},"5":{"ha":1094,"x_min":135,"x_max":983,"o":"m 983 622 l 983 271 l 790 0 l 135 0 l 289 232 l 751 232 l 751 411 l 289 411 l 289 1000 l 928 1000 l 983 764 l 510 764 l 510 622 l 983 622 z "},"6":{"ha":1067,"x_min":129,"x_max":956,"o":"m 543 404 l 543 404 z m 667 558 l 956 229 l 736 0 l 350 0 l 129 271 l 736 1042 l 922 850 l 667 558 z m 693 233 l 693 233 l 544 406 l 408 235 l 408 232 q 693 232 408 232 l 693 232 q 693 233 693 232 z "},"7":{"ha":928,"x_min":22,"x_max":817,"o":"m 694 1000 l 817 782 l 178 11 l 22 160 l 524 764 l 122 764 l 178 1000 l 694 1000 z "},"8":{"ha":1078,"x_min":129,"x_max":967,"o":"m 693 233 l 693 233 z m 383 233 l 383 233 z m 385 233 l 385 233 z m 544 647 l 544 647 z m 731 519 l 967 271 l 736 0 l 350 0 l 129 271 l 365 515 l 129 765 l 360 1036 l 746 1036 l 967 765 l 731 519 z m 544 647 l 704 819 l 704 821 q 396 821 704 821 l 396 821 q 396 818 396 821 l 396 818 l 544 647 z m 692 233 l 692 233 l 544 406 l 385 233 l 385 232 q 692 232 385 232 l 692 232 q 692 233 692 232 z "},"9":{"ha":1068,"x_min":131,"x_max":957,"o":"m 540 638 l 540 638 z m 542 635 l 542 635 z m 679 808 l 679 808 z m 736 1042 l 957 771 l 350 0 l 153 147 l 419 483 l 131 813 l 350 1042 l 736 1042 z m 542 636 l 681 810 l 393 810 q 393 808 393 810 l 393 808 l 542 636 z "}," ":{"ha":783,"x_min":null,"x_max":null,"o":""},"!":{"ha":564,"x_min":147,"x_max":414,"o":"m 285 156 l 414 22 l 285 -111 l 147 22 l 285 156 z "},"\"":{"ha":1150,"x_min":178,"x_max":950,"o":"m 699 1089 l 950 817 l 821 683 l 561 956 l 699 1089 z m 315 1089 l 567 817 l 438 683 l 178 956 l 315 1089 z "},"#":{"ha":694,"x_min":43,"x_max":651,"o":"m 651 0 l 43 0 l 43 1111 l 651 1111 l 651 0 z m 86 43 l 608 43 l 608 1068 l 86 1068 l 86 43 z "},"$":{"ha":1094,"x_min":135,"x_max":983,"o":"m 582 764 l 983 271 l 790 0 l 663 0 l 510 -133 l 372 0 l 135 0 l 289 232 l 751 232 l 289 782 l 411 1000 l 544 1000 l 671 1122 l 789 1000 l 928 1000 l 983 764 l 582 764 z "},"&":{"ha":1000,"x_min":136,"x_max":889,"o":"m 889 1000 l 889 839 l 679 839 l 514 839 l 679 706 l 679 500 l 553 606 l 469 500 l 822 147 l 679 -3 l 169 500 l 386 728 l 136 1000 l 889 1000 z "},"'":{"ha":714,"x_min":178,"x_max":567,"o":"m 315 1089 l 567 817 l 438 683 l 178 956 l 315 1089 z "},"*":{"ha":789,"x_min":129,"x_max":660,"o":"m 656 801 l 656 801 q 650 807 653 804 l 650 807 q 610 783 636 776 l 610 783 l 565 790 l 621 739 q 640 756 635 749 l 640 756 q 656 801 660 778 z m 243 817 l 243 817 l 174 772 q 158 790 163 783 l 158 790 q 147 835 143 814 l 147 835 q 149 846 147 840 l 149 846 q 151 847 150 846 l 151 847 q 163 829 157 838 l 163 829 q 196 817 175 813 l 196 817 q 229 822 217 822 l 229 822 q 243 817 238 822 z m 621 606 l 621 606 q 575 542 600 563 l 575 542 q 488 513 540 513 l 488 513 q 468 506 468 513 l 468 506 q 478 483 478 492 l 478 483 q 495 451 486 467 q 503 428 504 436 l 503 428 q 492 411 499 411 l 492 411 q 465 435 483 411 q 421 497 447 458 l 421 497 q 404 515 408 515 l 404 515 q 403 497 403 515 l 403 497 q 398 463 403 476 q 383 446 393 450 l 383 446 q 357 447 369 440 q 344 461 344 454 l 344 461 q 346 478 346 471 l 346 478 q 341 496 346 486 q 327 512 336 506 q 311 518 318 518 l 311 518 q 303 503 306 518 q 300 483 301 488 l 300 483 q 268 465 293 465 l 268 465 q 238 471 251 465 q 225 483 225 476 l 225 483 q 250 501 225 485 q 272 528 275 518 l 272 528 q 247 543 268 539 l 247 543 q 147 606 190 556 l 147 606 q 129 635 129 628 l 129 635 q 137 652 129 636 q 148 698 144 668 q 157 733 151 728 l 157 733 q 243 790 189 742 l 243 790 q 280 819 264 810 q 307 829 296 829 l 307 829 q 342 815 314 829 q 403 801 369 801 l 403 801 l 478 801 q 563 743 506 801 l 563 743 q 626 629 626 678 l 626 629 q 621 606 626 619 z m 521 326 l 521 326 q 472 293 494 314 l 472 293 q 439 278 456 278 l 439 278 q 407 283 433 278 q 361 294 381 289 q 325 311 342 300 l 325 311 q 306 319 317 317 q 289 322 296 322 l 289 322 q 267 319 274 319 l 267 319 q 233 339 251 319 l 233 339 q 222 358 226 346 q 218 382 218 371 l 218 382 q 228 420 218 403 q 253 438 239 438 l 253 438 q 272 428 263 438 l 272 428 q 265 407 281 418 l 265 407 q 257 397 257 401 l 257 397 q 269 385 257 392 q 290 378 282 378 l 290 378 q 321 411 310 378 l 321 411 q 325 428 322 417 l 325 428 q 347 424 336 426 q 365 414 358 421 q 371 400 371 407 l 371 400 q 368 385 371 396 q 365 368 365 374 l 365 368 q 383 346 365 356 l 383 346 q 401 352 396 342 q 411 372 406 363 l 411 372 q 411 411 413 374 l 411 411 q 421 413 415 411 l 421 413 q 449 343 446 392 l 449 343 q 463 339 456 340 l 463 339 q 488 372 488 350 l 488 372 q 494 385 488 379 q 508 390 501 390 l 508 390 q 523 381 517 390 q 534 363 529 371 q 539 347 539 354 l 539 347 q 521 326 539 335 z m 444 783 l 444 783 q 415 779 425 786 l 415 779 q 392 750 403 764 l 392 750 q 378 715 381 746 q 374 675 376 683 q 372 661 372 667 l 372 661 q 371 658 371 660 l 371 658 l 383 701 q 396 721 390 714 l 396 721 q 434 751 414 743 q 456 761 454 760 l 456 761 q 467 772 467 768 l 467 772 q 444 783 467 778 z m 532 631 l 532 631 l 532 701 l 503 739 q 489 742 494 742 l 489 742 q 463 728 475 742 l 463 728 q 410 655 436 692 q 383 606 383 618 l 383 606 q 400 588 383 594 q 440 581 417 581 l 440 581 q 501 593 475 581 q 532 631 528 606 z m 325 701 l 325 701 l 314 772 q 311 789 313 785 l 311 789 q 292 801 304 806 l 292 801 q 275 789 278 793 q 272 783 272 785 l 272 783 q 276 782 275 782 l 276 782 q 300 761 290 776 l 300 761 q 325 701 325 721 z m 344 606 l 344 606 q 354 621 354 611 l 354 621 q 351 634 354 628 q 344 646 347 640 l 344 646 q 332 653 344 650 q 313 662 319 656 q 301 690 307 668 q 292 728 296 711 l 292 728 q 272 753 283 753 l 272 753 q 250 738 264 753 l 250 738 q 210 700 218 701 q 203 678 203 699 l 203 678 q 212 644 203 663 q 243 606 221 626 l 243 606 q 293 576 276 576 l 293 576 q 319 587 306 576 q 344 606 333 597 z m 383 535 l 383 535 q 385 549 388 540 q 383 568 383 558 l 383 568 q 369 581 383 579 q 344 583 356 583 l 344 583 q 330 572 335 583 q 325 550 325 560 l 325 550 l 325 528 l 344 550 l 356 550 q 361 541 361 550 q 365 528 361 532 l 365 528 q 374 525 369 521 q 383 535 378 529 z m 444 619 l 444 619 q 433 618 443 617 l 433 618 q 432 631 428 626 l 432 631 q 444 633 435 636 l 444 633 q 444 619 449 625 z m 300 619 l 300 619 q 285 617 294 607 l 285 617 q 281 631 275 619 l 281 631 q 296 635 288 643 l 296 635 q 300 619 308 632 z "},"+":{"ha":906,"x_min":117,"x_max":794,"o":"m 794 617 l 794 413 l 574 413 l 574 192 l 342 192 l 342 413 l 117 413 l 117 617 l 342 617 l 342 850 l 574 850 l 574 617 l 794 617 z "},",":{"ha":661,"x_min":161,"x_max":550,"o":"m 299 156 l 550 -117 l 421 -250 l 161 22 l 299 156 z "},"-":{"ha":1250,"x_min":128,"x_max":1139,"o":"m 543 600 l 1139 722 l 699 294 l 699 439 l 128 317 l 543 722 l 543 600 z "},".":{"ha":564,"x_min":161,"x_max":428,"o":"m 299 156 l 428 22 l 299 -111 l 161 22 l 299 156 z "},"/":{"ha":989,"x_min":110,"x_max":843,"o":"m 690 913 l 843 750 l 264 -6 l 110 149 l 690 913 z "},":":{"ha":572,"x_min":161,"x_max":428,"o":"m 299 583 l 428 450 l 299 317 l 161 450 l 299 583 z m 299 156 l 428 22 l 299 -111 l 161 22 l 299 156 z "},";":{"ha":681,"x_min":161,"x_max":550,"o":"m 299 583 l 428 450 l 299 317 l 161 450 l 299 583 z m 299 156 l 550 -117 l 421 -250 l 161 22 l 299 156 z "},"<":{"ha":1389,"x_min":null,"x_max":null,"o":""},"=":{"ha":1306,"x_min":133,"x_max":1194,"o":"m 549 844 l 1144 967 l 704 539 l 704 683 l 133 561 l 549 967 l 549 844 z m 599 472 l 1194 594 l 754 167 l 754 311 l 183 189 l 599 594 l 599 472 z "},">":{"ha":1389,"x_min":null,"x_max":null,"o":""},"?":{"ha":928,"x_min":122,"x_max":817,"o":"m 694 1000 l 817 782 l 354 232 l 178 354 l 524 764 l 122 764 l 178 1000 l 694 1000 z m 299 156 l 428 22 l 299 -111 l 161 22 l 299 156 z "},"@":{"ha":1032,"x_min":117,"x_max":921,"o":"m 921 750 l 921 654 l 799 654 l 799 249 l 683 357 l 683 654 l 593 654 l 593 249 l 419 249 l 304 399 l 185 249 l 117 326 l 233 490 l 168 575 l 246 654 l 300 582 l 419 750 l 593 750 l 921 750 z m 374 490 l 478 351 l 478 621 l 374 490 z "},"A":{"ha":1172,"x_min":108,"x_max":1061,"o":"m 828 193 l 828 193 z m 1061 1003 l 1061 0 l 715 0 l 485 299 l 246 0 l 108 154 l 343 482 l 213 651 l 367 811 l 475 667 l 715 1003 l 1061 1003 z m 829 193 l 829 193 l 829 729 q 829 731 829 729 l 829 731 q 822 731 829 731 l 822 731 l 621 469 l 828 193 q 829 193 829 193 z "},"B":{"ha":978,"x_min":114,"x_max":867,"o":"m 114 1006 l 867 1006 l 617 733 l 833 506 l 324 3 l 114 3 l 114 1006 z m 324 711 l 489 844 l 324 844 l 324 711 z m 324 322 l 533 506 l 450 611 l 324 506 l 324 322 z "},"C":{"ha":1078,"x_min":46,"x_max":1011,"o":"m 324 232 l 324 232 z m 822 232 l 1011 0 l 267 0 l 46 271 l 653 1042 l 872 722 l 689 539 l 631 618 l 324 233 l 324 232 q 822 232 324 232 l 822 232 z "},"D":{"ha":1089,"x_min":118,"x_max":1044,"o":"m 351 851 l 351 851 z m 504 1008 l 1044 276 l 851 6 l 118 6 l 118 1008 l 504 1008 z m 350 238 l 813 238 l 353 850 q 350 850 353 850 l 350 850 l 350 238 z "},"E":{"ha":807,"x_min":117,"x_max":696,"o":"m 696 192 l 696 -1 l 271 -1 l 117 192 l 117 1001 l 696 1001 l 696 810 l 347 810 l 347 617 l 696 617 l 696 385 l 347 385 l 347 192 l 696 192 z "},"F":{"ha":808,"x_min":118,"x_max":697,"o":"m 697 618 l 697 386 l 349 386 l 349 0 l 118 238 l 118 1003 l 697 1003 l 697 811 l 349 811 l 349 618 l 697 618 z "},"G":{"ha":1206,"x_min":129,"x_max":1094,"o":"m 407 232 l 407 232 z m 404 232 l 404 232 z m 1094 432 l 1094 0 l 350 0 l 129 271 l 736 1042 l 956 722 l 772 539 l 714 618 l 407 233 l 407 232 q 856 232 407 232 l 856 232 l 856 432 l 1094 432 z "},"H":{"ha":1078,"x_min":117,"x_max":967,"o":"m 967 1003 l 967 -308 l 735 -76 l 735 403 l 426 403 l 426 0 l 194 0 l 194 926 l 117 1003 l 426 1003 l 426 628 l 735 628 l 735 1003 l 967 1003 z "},"I":{"ha":463,"x_min":119,"x_max":351,"o":"m 351 1006 l 351 3 l 119 3 l 119 1006 l 351 1006 z "},"J":{"ha":789,"x_min":113,"x_max":731,"o":"m 419 307 l 419 307 z m 653 74 l 731 -3 l 460 -3 l 113 344 l 113 653 l 419 307 q 421 307 419 307 l 421 307 l 421 1000 l 653 1000 l 653 74 z "},"K":{"ha":811,"x_min":114,"x_max":1018,"o":"m 438 574 l 1018 -190 l 864 -344 l 324 389 l 324 3 l 114 3 l 114 1006 l 324 1006 l 324 814 l 517 1006 l 678 814 l 438 574 z "},"L":{"ha":826,"x_min":117,"x_max":715,"o":"m 715 194 l 715 0 l 194 0 l 194 926 l 117 1003 l 388 1003 l 388 194 l 715 194 z "},"M":{"ha":1190,"x_min":114,"x_max":1079,"o":"m 838 711 l 838 711 z m 463 693 l 463 693 z m 1079 772 l 1079 -308 l 847 -76 l 847 693 q 847 693 847 693 l 847 693 l 846 693 q 654 463 846 693 l 654 463 l 463 693 q 461 693 463 693 l 461 693 l 461 0 l 231 0 l 231 926 l 114 1003 l 461 1003 l 654 811 l 847 1003 l 1079 772 z "},"N":{"ha":1078,"x_min":117,"x_max":967,"o":"m 426 693 l 426 693 z m 967 1003 l 967 -308 l 735 -76 l 735 347 l 428 693 l 426 693 q 426 0 426 693 l 426 0 l 194 0 l 194 926 l 117 1003 l 388 1003 l 735 656 l 735 1003 l 967 1003 z "},"O":{"ha":1211,"x_min":32,"x_max":1174,"o":"m 311 232 l 311 232 z m 639 1042 l 1174 271 l 964 0 l 253 0 l 32 271 l 639 1042 z m 924 233 l 924 233 l 617 618 l 311 235 l 311 232 q 924 232 311 232 l 924 232 q 924 233 924 232 z "},"P":{"ha":1006,"x_min":114,"x_max":940,"o":"m 326 504 l 326 504 z m 517 1006 l 940 300 l 324 300 l 324 3 l 114 3 l 114 1006 l 324 1006 l 324 814 l 517 1006 z m 604 504 l 604 504 l 483 675 l 326 507 l 326 504 q 604 504 326 504 z "},"Q":{"ha":1222,"x_min":32,"x_max":1174,"o":"m 617 617 l 617 617 z m 313 232 l 313 232 z m 639 1042 l 1174 271 l 964 0 l 758 0 l 886 -161 l 703 -317 l 450 0 l 253 0 l 32 271 l 639 1042 z m 924 233 l 924 233 l 618 617 q 615 617 618 617 l 615 617 l 313 236 l 313 232 q 924 232 313 232 l 924 232 q 924 233 924 232 z "},"R":{"ha":994,"x_min":114,"x_max":1018,"o":"m 517 697 l 517 697 z m 518 692 l 518 692 z m 669 504 l 669 504 z m 671 274 l 1018 -190 l 864 -344 l 324 389 l 324 3 l 114 3 l 114 1006 l 324 1006 l 324 814 l 517 1006 l 901 543 l 671 274 z m 669 506 l 669 506 l 517 697 l 325 506 l 325 504 q 669 504 325 504 l 669 504 q 669 506 669 504 z "},"S":{"ha":1094,"x_min":135,"x_max":983,"o":"m 697 1506 l 697 1506 z m 592 764 l 592 764 z m 983 271 l 983 271 l 790 0 l 135 0 l 289 232 l 749 232 q 750 232 749 232 l 750 232 q 750 233 750 232 l 750 233 l 289 782 l 411 1000 l 928 1000 l 983 764 l 585 764 q 585 764 585 764 l 585 764 l 585 761 q 604 736 585 761 l 604 736 q 983 271 604 736 z "},"T":{"ha":933,"x_min":115,"x_max":822,"o":"m 822 992 l 822 800 l 579 800 l 579 -11 l 349 204 l 349 800 l 115 800 l 115 992 l 822 992 z "},"U":{"ha":1078,"x_min":117,"x_max":967,"o":"m 967 1003 l 967 -53 l 735 179 l 735 304 l 426 0 l 194 0 l 194 926 l 117 1003 l 426 1003 l 426 292 q 426 290 426 292 l 426 290 q 432 290 426 290 l 432 290 l 735 600 l 735 1003 l 967 1003 z "},"V":{"ha":1078,"x_min":117,"x_max":967,"o":"m 426 288 l 426 288 z m 967 1003 l 967 536 l 426 0 l 194 0 l 194 926 l 117 1003 l 426 1003 l 426 288 q 431 288 426 288 l 431 288 l 735 600 l 735 1003 l 967 1003 z "},"W":{"ha":1617,"x_min":117,"x_max":1506,"o":"m 1506 1003 l 1506 536 l 965 0 l 733 0 l 733 304 l 426 0 l 194 0 l 194 926 l 117 1003 l 426 1003 l 426 285 l 428 285 q 733 599 428 285 l 733 599 l 733 926 l 656 1003 l 965 1003 l 967 536 l 965 286 q 967 286 965 286 l 967 286 l 1274 600 l 1274 1003 l 1506 1003 z "},"X":{"ha":964,"x_min":114,"x_max":853,"o":"m 507 294 l 507 294 z m 508 296 l 508 296 z m 506 294 l 506 294 z m 497 660 l 497 660 z m 644 468 l 853 190 l 738 -3 l 507 296 l 268 -3 l 131 151 l 365 479 l 114 815 l 268 975 l 496 665 q 499 665 496 665 l 499 665 l 738 1000 l 853 731 l 644 468 z "},"Y":{"ha":1078,"x_min":117,"x_max":967,"o":"m 429 286 l 429 286 z m 967 1003 l 967 -269 l 735 -37 l 735 304 l 426 0 l 194 0 l 194 926 l 117 1003 l 426 1003 l 426 286 l 429 286 q 735 600 429 286 l 735 600 l 735 1003 l 967 1003 z "},"Z":{"ha":1083,"x_min":122,"x_max":971,"o":"m 817 232 l 971 0 l 315 0 l 122 271 l 524 764 l 122 764 l 178 1000 l 694 1000 l 817 782 l 354 232 l 817 232 z "},"[":{"ha":1389,"x_min":null,"x_max":null,"o":""},"\\":{"ha":954,"x_min":110,"x_max":843,"o":"m 690 913 l 843 750 l 264 -6 l 110 149 l 690 913 z "},"]":{"ha":1389,"x_min":null,"x_max":null,"o":""},"^":{"ha":1389,"x_min":null,"x_max":null,"o":""},"_":{"ha":1261,"x_min":139,"x_max":1150,"o":"m 554 56 l 1150 178 l 710 -250 l 710 -106 l 139 -228 l 554 178 l 554 56 z "},"`":{"ha":1389,"x_min":null,"x_max":null,"o":""},"a":{"ha":1172,"x_min":108,"x_max":1061,"o":"m 1061 1003 l 1061 0 l 715 0 l 485 299 l 246 0 l 108 154 l 343 482 l 213 651 l 367 811 l 475 667 l 715 1003 l 1061 1003 z m 831 194 l 831 194 l 831 731 q 831 732 831 731 l 831 732 q 828 732 831 732 l 828 732 l 622 471 l 829 194 q 831 194 829 194 z "},"b":{"ha":978,"x_min":114,"x_max":867,"o":"m 114 1006 l 867 1006 l 617 733 l 833 506 l 324 3 l 114 3 l 114 1006 z m 324 711 l 489 844 l 324 844 l 324 711 z m 324 322 l 533 506 l 450 611 l 324 506 l 324 322 z "},"c":{"ha":1078,"x_min":46,"x_max":1011,"o":"m 324 232 l 324 232 z m 822 232 l 1011 0 l 267 0 l 46 271 l 653 1042 l 872 722 l 689 539 l 631 618 l 324 233 l 324 232 q 822 232 324 232 l 822 232 z "},"d":{"ha":1089,"x_min":118,"x_max":1044,"o":"m 351 851 l 351 851 z m 504 1008 l 1044 276 l 851 6 l 118 6 l 118 1008 l 504 1008 z m 350 238 l 813 238 l 353 850 q 350 850 353 850 l 350 850 l 350 238 z "},"e":{"ha":807,"x_min":117,"x_max":696,"o":"m 696 192 l 696 -1 l 271 -1 l 117 192 l 117 1001 l 696 1001 l 696 810 l 347 810 l 347 617 l 696 617 l 696 385 l 347 385 l 347 192 l 696 192 z "},"f":{"ha":808,"x_min":118,"x_max":697,"o":"m 697 618 l 697 386 l 349 386 l 349 0 l 118 238 l 118 1003 l 697 1003 l 697 811 l 349 811 l 349 618 l 697 618 z "},"g":{"ha":1206,"x_min":129,"x_max":1094,"o":"m 407 232 l 407 232 z m 404 232 l 404 232 z m 1094 432 l 1094 0 l 350 0 l 129 271 l 736 1042 l 956 722 l 772 539 l 714 618 l 407 233 l 407 232 q 856 232 407 232 l 856 232 l 856 432 l 1094 432 z "},"h":{"ha":1078,"x_min":117,"x_max":967,"o":"m 967 1003 l 967 -308 l 735 -76 l 735 403 l 426 403 l 426 0 l 194 0 l 194 926 l 117 1003 l 426 1003 l 426 628 l 735 628 l 735 1003 l 967 1003 z "},"i":{"ha":463,"x_min":119,"x_max":351,"o":"m 351 1006 l 351 3 l 119 3 l 119 1006 l 351 1006 z "},"j":{"ha":789,"x_min":113,"x_max":731,"o":"m 419 307 l 419 307 z m 653 74 l 731 -3 l 460 -3 l 113 344 l 113 653 l 419 307 q 421 307 419 307 l 421 307 l 421 1000 l 653 1000 l 653 74 z "},"k":{"ha":811,"x_min":114,"x_max":1018,"o":"m 438 574 l 1018 -190 l 864 -344 l 324 389 l 324 3 l 114 3 l 114 1006 l 324 1006 l 324 814 l 517 1006 l 678 814 l 438 574 z "},"l":{"ha":826,"x_min":117,"x_max":715,"o":"m 715 194 l 715 0 l 194 0 l 194 926 l 117 1003 l 388 1003 l 388 194 l 715 194 z "},"m":{"ha":1190,"x_min":114,"x_max":1079,"o":"m 838 711 l 838 711 z m 463 693 l 463 693 z m 1079 772 l 1079 -308 l 847 -76 l 847 693 q 847 693 847 693 l 847 693 l 846 693 q 654 463 846 693 l 654 463 l 463 693 q 461 693 463 693 l 461 693 l 461 0 l 231 0 l 231 926 l 114 1003 l 461 1003 l 654 811 l 847 1003 l 1079 772 z "},"n":{"ha":1078,"x_min":117,"x_max":967,"o":"m 426 693 l 426 693 z m 967 1003 l 967 -308 l 735 -76 l 735 347 l 428 693 l 426 693 q 426 0 426 693 l 426 0 l 194 0 l 194 926 l 117 1003 l 388 1003 l 735 656 l 735 1003 l 967 1003 z "},"o":{"ha":1211,"x_min":32,"x_max":1174,"o":"m 311 232 l 311 232 z m 639 1042 l 1174 271 l 964 0 l 253 0 l 32 271 l 639 1042 z m 924 233 l 924 233 l 617 618 l 311 235 l 311 232 q 924 232 311 232 l 924 232 q 924 233 924 232 z "},"p":{"ha":1006,"x_min":114,"x_max":940,"o":"m 326 504 l 326 504 z m 517 1006 l 940 300 l 324 300 l 324 3 l 114 3 l 114 1006 l 324 1006 l 324 814 l 517 1006 z m 604 504 l 604 504 l 483 675 l 326 507 l 326 504 q 604 504 326 504 z "},"q":{"ha":1222,"x_min":32,"x_max":1174,"o":"m 617 617 l 617 617 z m 313 232 l 313 232 z m 639 1042 l 1174 271 l 964 0 l 758 0 l 886 -161 l 703 -317 l 450 0 l 253 0 l 32 271 l 639 1042 z m 924 233 l 924 233 l 618 617 q 615 617 618 617 l 615 617 l 313 236 l 313 232 q 924 232 313 232 l 924 232 q 924 233 924 232 z "},"r":{"ha":994,"x_min":114,"x_max":1018,"o":"m 517 697 l 517 697 z m 518 692 l 518 692 z m 669 504 l 669 504 z m 671 274 l 1018 -190 l 864 -344 l 324 389 l 324 3 l 114 3 l 114 1006 l 324 1006 l 324 814 l 517 1006 l 901 543 l 671 274 z m 669 506 l 669 506 l 517 697 l 325 506 l 325 504 q 669 504 325 504 l 669 504 q 669 506 669 504 z "},"s":{"ha":1094,"x_min":135,"x_max":983,"o":"m 697 1506 l 697 1506 z m 592 764 l 592 764 z m 983 271 l 983 271 l 790 0 l 135 0 l 289 232 l 749 232 q 750 232 749 232 l 750 232 q 750 233 750 232 l 750 233 l 289 782 l 411 1000 l 928 1000 l 983 764 l 585 764 q 585 764 585 764 l 585 764 l 585 761 q 604 736 585 761 l 604 736 q 983 271 604 736 z "},"t":{"ha":933,"x_min":115,"x_max":822,"o":"m 822 992 l 822 800 l 579 800 l 579 -11 l 349 204 l 349 800 l 115 800 l 115 992 l 822 992 z "},"u":{"ha":1078,"x_min":117,"x_max":967,"o":"m 967 1003 l 967 -53 l 735 179 l 735 304 l 426 0 l 194 0 l 194 926 l 117 1003 l 426 1003 l 426 292 q 426 290 426 292 l 426 290 q 432 290 426 290 l 432 290 l 735 600 l 735 1003 l 967 1003 z "},"v":{"ha":1078,"x_min":117,"x_max":967,"o":"m 426 288 l 426 288 z m 967 1003 l 967 536 l 426 0 l 194 0 l 194 926 l 117 1003 l 426 1003 l 426 288 q 431 288 426 288 l 431 288 l 735 600 l 735 1003 l 967 1003 z "},"w":{"ha":1617,"x_min":117,"x_max":1506,"o":"m 1506 1003 l 1506 536 l 965 0 l 733 0 l 733 304 l 426 0 l 194 0 l 194 926 l 117 1003 l 426 1003 l 426 285 l 428 285 q 733 599 428 285 l 733 599 l 733 926 l 656 1003 l 965 1003 l 967 536 l 965 286 q 967 286 965 286 l 967 286 l 1274 600 l 1274 1003 l 1506 1003 z "},"x":{"ha":964,"x_min":114,"x_max":853,"o":"m 507 294 l 507 294 z m 508 296 l 508 296 z m 506 294 l 506 294 z m 497 660 l 497 660 z m 644 468 l 853 190 l 738 -3 l 507 296 l 268 -3 l 131 151 l 365 479 l 114 815 l 268 975 l 496 665 q 499 665 496 665 l 499 665 l 738 1000 l 853 731 l 644 468 z "},"y":{"ha":1078,"x_min":117,"x_max":967,"o":"m 429 286 l 429 286 z m 967 1003 l 967 -269 l 735 -37 l 735 304 l 426 0 l 194 0 l 194 926 l 117 1003 l 426 1003 l 426 286 l 429 286 q 735 600 429 286 l 735 600 l 735 1003 l 967 1003 z "},"z":{"ha":1083,"x_min":122,"x_max":971,"o":"m 817 232 l 971 0 l 315 0 l 122 271 l 524 764 l 122 764 l 178 1000 l 694 1000 l 817 782 l 354 232 l 817 232 z "},"‘":{"ha":714,"x_min":178,"x_max":567,"o":"m 315 1089 l 567 817 l 438 683 l 178 956 l 315 1089 z "},"’":{"ha":714,"x_min":169,"x_max":558,"o":"m 421 1089 l 169 817 l 299 683 l 558 956 l 421 1089 z "},"“":{"ha":1150,"x_min":178,"x_max":950,"o":"m 699 1089 l 950 817 l 821 683 l 561 956 l 699 1089 z m 315 1089 l 567 817 l 438 683 l 178 956 l 315 1089 z "},"”":{"ha":1150,"x_min":189,"x_max":961,"o":"m 440 1089 l 189 817 l 318 683 l 578 956 l 440 1089 z m 824 1089 l 572 817 l 701 683 l 961 956 l 824 1089 z "}}}
